<svg width="55" height="88" fill="none" xmlns="http://www.w3.org/2000/svg"><path d="M53.77.277H1.317a.947.947 0 00-.97.97v85.784c0 .553.415.97.97.97H53.77c.554 0 .97-.417.97-.97V1.246a.947.947 0 00-.97-.97zM4.781 5.682v-.485c0-.277.208-.554.554-.554H49.89c.277 0 .554.208.554.554v39.704L28.34 67.005l-.346.346a.544.544 0 01-.762 0l-.347-.346L4.781 44.9V5.682zm45.525 76.913v.486a.546.546 0 01-.555.554H5.266a.547.547 0 01-.554-.555V51.138l22.104 22.104c.346.347.97.347 1.386 0l22.104-22.104v31.459z" fill="#000"/></svg>